<svg xmlns="http://www.w3.org/2000/svg" viewBox="0 0 176.66 176.66"><defs><style>.cls-1{fill:#fff;}.cls-2{font-size:19px;font-family:AGaramondPro-Regular, Adobe Garamond Pro;}</style></defs><title>Asset 1</title><g id="Layer_2" data-name="Layer 2"><g id="Layer_1-2" data-name="Layer 1"><circle class="cls-1" cx="88.33" cy="88.33" r="88.33"/><text class="cls-2" transform="matrix(0.3, -0.95, 0.95, 0.3, 19.67, 69.24)"> </text><text class="cls-2" transform="matrix(0.39, -0.92, 0.92, 0.39, 21.19, 64.26)">•</text><text class="cls-2" transform="translate(24.29 57.08) rotate(-62.03)"> </text><text class="cls-2" transform="matrix(0.57, -0.82, 0.82, 0.57, 26.54, 52.47)">B</text><text class="cls-2" transform="matrix(0.68, -0.73, 0.73, 0.68, 33.16, 43.12)">y</text><text class="cls-2" transform="matrix(0.76, -0.65, 0.65, 0.76, 39.02, 36.82)">e</text><text class="cls-2" transform="matrix(0.82, -0.57, 0.57, 0.82, 45.08, 31.68)">s</text><text class="cls-2" transform="translate(50.51 27.94) rotate(-30.2)"> </text><text class="cls-2" transform="matrix(0.92, -0.4, 0.4, 0.92, 54.86, 25.2)">B</text><text class="cls-2" transform="translate(65.66 20.71) rotate(-15.48)">e</text><text class="cls-2" transform="matrix(0.99, -0.15, 0.15, 0.99, 73.27, 18.59)">g</text><text class="cls-2" transform="translate(82.06 17.33) rotate(-2.47)">r</text><text class="cls-2" transform="translate(88.76 17.03) rotate(3.38)">a</text><text class="cls-2" transform="translate(96.81 17.51) rotate(10.06)">v</text><text class="cls-2" transform="translate(105.14 19.02) rotate(16.63)">e</text><text class="cls-2" transform="translate(112.76 21.39) rotate(21.96)">l</text><text class="cls-2" transform="translate(117.55 23.3) rotate(26.71)">s</text><text class="cls-2" transform="translate(123.42 26.25) rotate(32.56)">e</text><text class="cls-2" transform="translate(130.09 30.57) rotate(38.38)">s</text><text class="cls-2" transform="matrix(0.71, 0.71, -0.71, 0.71, 135.24, 34.55)">b</text><text class="cls-2" transform="matrix(0.61, 0.79, -0.79, 0.61, 142.09, 41.46)">y</text><text class="cls-2" transform="matrix(0.52, 0.85, -0.85, 0.52, 147.38, 48.4)">r</text><text class="cls-2" transform="translate(150.91 54.12) rotate(64.38)">å</text><text class="cls-2" transform="matrix(0.35, 0.94, -0.94, 0.35, 154.34, 61.49)"> </text><text class="cls-2" transform="translate(156.14 66.42) rotate(74.03)"> </text><text class="cls-2" transform="translate(157.61 71.42) rotate(79.31)">•</text><text class="cls-2" transform="translate(158.98 79.11) rotate(84.54)"> </text><text class="cls-2" transform="matrix(0.02, 1, -1, 0.02, 159.46, 84.35)"> </text><text class="cls-2" transform="translate(159.68 89.53) rotate(94.71)">1</text><text class="cls-2" transform="translate(158.85 99.29) rotate(102.6)">8</text><text class="cls-2" transform="translate(156.69 108.87) rotate(110.55)">8</text><text class="cls-2" transform="matrix(-0.48, 0.88, -0.88, -0.48, 153.23, 118.05)">6</text><text class="cls-2" transform="matrix(-0.57, 0.82, -0.82, -0.57, 148.39, 126.67)"> </text><text class="cls-2" transform="translate(145.38 131) rotate(128.74)"> </text><text class="cls-2" transform="translate(142.15 135.09) rotate(133.95)">•</text><text class="cls-2" transform="matrix(-0.76, 0.65, -0.65, -0.76, 136.66, 140.67)"> </text><text class="cls-2" transform="translate(132.69 144.08) rotate(143.36)"> </text><text class="cls-2" transform="translate(128.82 147.39) rotate(151.57)">O</text><text class="cls-2" transform="translate(115.52 154.58) rotate(163.7)">m</text><text class="cls-2" transform="matrix(-0.99, 0.13, -0.13, -0.99, 100.83, 158.51)">s</text><text class="cls-2" transform="translate(94.38 159.43) rotate(178.87)">o</text><text class="cls-2" transform="translate(84.75 159.51) rotate(-174.65)">r</text><text class="cls-2" transform="translate(78.07 158.93) rotate(-168.39)">g</text><text class="cls-2" transform="matrix(-0.95, -0.3, 0.3, -0.95, 69.37, 157.02)"> </text><text class="cls-2" transform="translate(64.42 155.54) rotate(-157.1)">v</text><text class="cls-2" transform="translate(56.63 152.21) rotate(-150.53)">e</text><text class="cls-2" transform="matrix(-0.8, -0.6, 0.6, -0.8, 49.73, 148.37)">d</text><text class="cls-2" transform="matrix(-0.73, -0.68, 0.68, -0.73, 41.75, 142.23)"> </text><text class="cls-2" transform="translate(37.9 138.65) rotate(-133.06)">l</text><text class="cls-2" transform="translate(34.36 134.84) rotate(-128.83)">i</text><text class="cls-2" transform="translate(30.97 130.72) rotate(-123.23)">v</text><text class="cls-2" transform="translate(26.36 123.63) rotate(-116.69)">e</text><text class="cls-2" transform="translate(22.85 116.5) rotate(-110.95)">t</text><text class="cls-2" transform="translate(20.61 110.62) rotate(-105.72)">s</text><text class="cls-2" transform="translate(18.85 104.28) rotate(-100.4)">s</text><text class="cls-2" transform="matrix(-0.1, -1, 1, -0.1, 17.71, 97.78)">l</text><text class="cls-2" transform="translate(17.05 92.7) rotate(-89.07)">u</text><text class="cls-2" transform="translate(17.29 82.6) rotate(-83.12)">t</text><text class="cls-2" transform="matrix(0.21, -0.98, 0.98, 0.21, 18.07, 76.34)">t</text><path d="M69.75,66.69c0-8-.44-10.07-5.31-10.5L61,55.87a1.73,1.73,0,0,1,.11-2.71c5.84-.54,13.2-.87,23.26-.87,6.82,0,13.31.55,18.18,3,4.66,2.28,8.23,6.61,8.23,13.53,0,7.79-4.55,11.8-11,14.83,0,1.08.86,1.4,2.06,1.62a17.9,17.9,0,0,1,14.5,18.07c0,12.55-9.31,21-28.79,21-3.14,0-8.44-.32-13-.32-4.76,0-8.44.22-12.45.32-.65-.32-.86-2-.21-2.7l1.94-.33c5.74-1,6-2.16,6-13.52Zm8.87,14.39c0,3,.11,3.25,5.63,3,11-.43,17-3.68,17-13.85,0-10.61-7.91-14.61-16.13-14.61a13.41,13.41,0,0,0-5,.65c-1.08.32-1.51.86-1.51,2.81Zm0,25.1c0,3.9.22,9.42,2.27,11.8s5.3,3,8.55,3c9.63,0,17-4.33,17-15.15,0-8.55-4.33-18.5-21.53-18.5-5.85,0-6.28.64-6.28,2.81Z"/></g></g></svg>