<svg xmlns="http://www.w3.org/2000/svg" viewBox="0 0 208 124">
  <title>Gjennomsiktig</title>
  <g id="Layer_2" data-name="Layer 2">
    <g id="Layer_1-2" data-name="Layer 1">
      <rect width="208" height="124" style="fill: none"/>
      <g>
        <path d="M17.6,23.1V21.5l1.4-.3,4.8-.3q6-.5,13.4-.9h9.4q8.7,0,12.8,1.3a17.3,17.3,0,0,1,8.8,5.8,14.2,14.2,0,0,1,2.9,8.7q0,7.7-10.8,13l-.3.4a26,26,0,0,1,9.1,4.2,18.4,18.4,0,0,1,5.4,6.7,17.5,17.5,0,0,1,1.4,7.5q0,7.8-6.9,13.9T49.8,87.6H42.2l-7.7.3h-12l-3.5-.2v-.6a1.3,1.3,0,0,1,.3-.9,2.5,2.5,0,0,1,1.2-.5q6.4-1.4,7.3-1.9a2.5,2.5,0,0,0,1.2-1.6q.6-2.1.6-10.8,0-.8-.1-2-.1-3.5-.1-4V60.1q0-13.8-.3-24.1V24.2q-4.4-.6-7.7-.8A17.5,17.5,0,0,1,17.6,23.1ZM38.9,49.5a26.9,26.9,0,0,0,5.4.5q11.1,0,15.1-5t4-9.9a15.3,15.3,0,0,0-.7-4.5,10.1,10.1,0,0,0-2.5-4.1,10.9,10.9,0,0,0-4.4-2.7,28.3,28.3,0,0,0-9.1-1.5,31.6,31.6,0,0,0-8.1,1q-.1,1.1-.1,1.6t.1,3q.1,1.6.1,3.1l-.2,6.3v3.8l.4,7.4ZM51,85.1a21.3,21.3,0,0,0,8.5-2.2,17,17,0,0,0,3.8-3,15.1,15.1,0,0,0,3.4-5.2,15.8,15.8,0,0,0,1.2-5.9,21,21,0,0,0-.8-5.3A14.1,14.1,0,0,0,64.2,58a14.7,14.7,0,0,0-6-3.9,24.4,24.4,0,0,0-8.8-1.5q-9.3,0-10.5.4t-.1,1.8V65q.2,12.3.6,14.6a6,6,0,0,0,2.8,3.9Q44.5,85.1,51,85.1Z"/>
        <path d="M74,43.2H89.6a33.8,33.8,0,0,1,5.1.3,2.2,2.2,0,0,1,.2.8v.4a10.7,10.7,0,0,1-3.3.7A10.9,10.9,0,0,0,87,46.4v.5a4.3,4.3,0,0,0,.4,1.5l.7,1.8q1.1,3.7,4.9,14.1,2.7,7.6,5,13,1.4-3,3.2-7.6L105.4,58a45.7,45.7,0,0,0,2.3-7.7,13,13,0,0,0,.3-2.4,1.9,1.9,0,0,0-.7-1.4,5.9,5.9,0,0,0-2.7-1.1l-3.9-1.1a1.3,1.3,0,0,1-.4-1l.7-.4h17a.8.8,0,0,1,.5.8,1.2,1.2,0,0,1-.5.9h-1a10.6,10.6,0,0,0-4.6,1.5,4.7,4.7,0,0,0-1.5,2.5l-.7,1.8-.7,2-1.3,3.3-.6,1.4v.2L99,79.6,92.7,96.2l-1.4,3.1a33,33,0,0,1-2.3,3.9,13.5,13.5,0,0,1-2.7,2.6l-2.6,1.1L82,107a5,5,0,0,1-3.4-1,3.4,3.4,0,0,1-1.1-2.7,3.7,3.7,0,0,1,1.6-2.9l1-.4h.7a48.5,48.5,0,0,0,5.7.8,4.2,4.2,0,0,0,1.6-1.3,41,41,0,0,0,4.3-8q1.8-4.4,1.8-6a13.9,13.9,0,0,0-1.4-4.9L87.2,66.1q-1.2-2.8-7-18.4a3.5,3.5,0,0,0-.9-1.5L75.7,45l-1.1-.2q-.9-.3-.9-1Z"/>
        <path d="M151.9,57.6l-20.6.2h-3.9l-4.8.2a9.7,9.7,0,0,0-.5,2.2v3.7a21.3,21.3,0,0,0,2,7.9,15.7,15.7,0,0,0,5.6,7.2,16.9,16.9,0,0,0,9.2,2.6,18.3,18.3,0,0,0,4.7-.7,23.3,23.3,0,0,0,4.9-2.7l3.7-3.1.3,2.1a6.8,6.8,0,0,1-.1.8,22.8,22.8,0,0,1-5.8,5.3,27.4,27.4,0,0,1-7.2,3.3,24.2,24.2,0,0,1-5.7.5,17.7,17.7,0,0,1-15.4-9,24.6,24.6,0,0,1-3-12.6,27.8,27.8,0,0,1,.8-6,32.2,32.2,0,0,1,3.1-7.8,15.2,15.2,0,0,1,3.6-4.6,24,24,0,0,1,5.4-3.6,19.5,19.5,0,0,1,7.7-1.4,15.1,15.1,0,0,1,7.8,1.8,15.7,15.7,0,0,1,6.1,6.2,14.8,14.8,0,0,1,2,6.9Zm-28.6-1.9h2.4l15.6-.8a6.3,6.3,0,0,0,2.5-.4,2.9,2.9,0,0,0,.9-1.8,8.7,8.7,0,0,0-1-3.7,7.2,7.2,0,0,0-3.2-3.2,10.3,10.3,0,0,0-4.9-1.1,11.5,11.5,0,0,0-9.5,4.6Q123.3,52.6,123.3,55.7Z"/>
        <path d="M159,72.1a39.7,39.7,0,0,0,2.9,6.4,14.7,14.7,0,0,0,4.7,4.6,11.2,11.2,0,0,0,5.9,1.6,8.7,8.7,0,0,0,5.8-2.6,6,6,0,0,0,2.1-4.5,9.6,9.6,0,0,0-2.4-6.3q-2.4-2.8-9.2-5.4t-9-5.5a10.5,10.5,0,0,1-2.3-6.7,10.7,10.7,0,0,1,1.9-6.3,11.7,11.7,0,0,1,5.2-4.1,16.1,16.1,0,0,1,6.2-1.4,33.7,33.7,0,0,1,6.5.6,16.5,16.5,0,0,1,5,1.8q.4,2.7.7,7.8v1.7h-1.8a15,15,0,0,0-4.7-6.9,10,10,0,0,0-6.2-2.5,6.7,6.7,0,0,0-5,1.9,6.8,6.8,0,0,0-1.9,5,6.3,6.3,0,0,0,1.5,4.2q1.5,1.8,7.2,4.2a37.3,37.3,0,0,1,8.3,4.4,12.2,12.2,0,0,1,3.8,4.9,14,14,0,0,1,1.2,5.5,11.1,11.1,0,0,1-2.3,6.8,12.5,12.5,0,0,1-5.8,4.4,18.6,18.6,0,0,1-6.3,1.3,29,29,0,0,1-12-2.5,2.1,2.1,0,0,1-.6-1.6c0-.3,0-.8-.1-1.5q-.8-7.1-.8-8.4a1.1,1.1,0,0,1,.3-.8A2.6,2.6,0,0,1,159,72.1Z"/>
      </g>
    </g>
  </g>
</svg>
